<svg width="178" height="79" viewBox="0 0 178 79" fill="none" xmlns="http://www.w3.org/2000/svg">
<g clip-path="url(#clip0_208_2)">
<path fill-rule="evenodd" clip-rule="evenodd" d="M130.859 20.1986C141.701 21.1312 146.684 17.4005 156.321 17.7297C156.759 17.8943 159.442 15.0962 159.88 15.0962C161.139 15.2608 160.975 18.0589 162.234 18.4978C168.75 20.3632 174.335 22.832 174.007 27.8246C175.102 30.0192 176.197 32.1589 177.292 34.3534C176.799 34.7923 176.526 35.2861 176.033 35.7799C175.431 37.9744 174.335 38.5779 173.405 38.139C172.638 37.8099 170.776 36.7126 171.981 34.7375C173.514 31.9394 172.748 29.7449 171.379 27.7149C170.612 27.3857 169.353 27.2211 168.422 27.3857C169.681 27.9892 169.188 29.0865 170.776 29.0865C173.733 30.9519 169.681 34.3534 171.105 37.1515C169.845 36.8223 168.915 36.9869 167.984 37.1515C169.517 37.4807 171.105 37.9196 172.2 39.1814C170.338 41.9795 167.71 40.1141 165.082 38.0842C162.289 37.755 159.332 38.0842 157.963 35.725C156.54 33.5305 156.266 31.3908 158.128 29.1962C156.594 27.4954 155.664 25.4655 156.102 23.2709C155.007 25.3009 155.007 27.3309 156.704 29.3608C155.007 32.1589 155.773 34.6277 157.142 37.3161C148.6 35.7799 140.058 48.3437 133.542 51.3063C132.885 50.2091 128.231 23.3258 130.859 20.1986Z" fill="#212121"/>
<path fill-rule="evenodd" clip-rule="evenodd" d="M120.784 76.6533C119.524 69.6307 108.081 74.9525 99.8123 66.9973C96.4175 53.7751 112.516 39.7848 89.5729 27.4953C101.072 30.2934 106.328 37.5903 104.467 49.8798C108.683 45.8198 111.585 40.7175 117.06 37.5903C111.475 43.7899 109.011 51.2514 101.4 56.4085C100.634 59.2066 99.7028 64.0346 101.236 66.5035C110.216 57.5058 123.576 56.5731 134.309 50.977C133.542 41.321 132.775 29.9642 131.954 20.3631C110.709 21.4603 77.4719 2.31288 62.414 27.0564C61.4831 39.1813 66.904 46.972 80.593 49.2763C89.7372 52.2389 90.8323 60.1393 89.4634 69.7953C96.5817 72.7579 103.59 75.7206 110.599 78.6832C115.199 79.6159 118.156 78.354 120.784 76.6533Z" fill="#212121"/>
<path fill-rule="evenodd" clip-rule="evenodd" d="M64.2758 77.5861C67.6707 79.4514 70.3537 78.6833 71.8869 75.3915C77.8006 74.4588 83.2214 73.0324 88.2042 70.2343C88.697 66.9425 88.8065 64.0347 88.5327 61.3464C83.8785 64.9125 78.1291 67.7106 71.9417 68.4787C69.4229 71.5511 66.7946 74.6234 64.2758 77.5861Z" fill="#212121"/>
<path d="M113.92 28.5478C100.888 28.054 82.0573 21.0863 64.9735 28.5478C57.1981 31.9494 49.587 35.4058 42.4687 37.8746C26.48 43.6353 15.3097 41.9346 8.46525 37.1066C5.34415 34.7474 3.20867 31.8396 1.78501 28.7124C0.361354 25.5852 -0.240959 22.1836 0.0875771 18.782C0.416113 11.156 4.57757 3.85909 11.7506 0.457538C14.1051 -0.639738 16.8977 0.292944 17.938 2.65209C19.0332 4.84664 17.938 7.6447 15.7478 8.74197C11.6958 10.6073 9.39609 14.9416 9.23183 19.3307C9.06756 21.3606 9.3961 23.3906 10.1627 25.0914C10.9293 26.9568 12.1887 28.4929 13.8861 29.7548C18.3761 33.0466 26.5895 33.9793 39.3476 29.4256C46.0279 26.9567 53.4747 23.6649 61.25 20.2634C79.2648 12.3081 98.8624 19.0015 113.92 19.1661V28.5478Z" fill="#212121"/>
</g>
<defs>
<clipPath id="clip0_208_2">
<rect width="178" height="79" fill="white"/>
</clipPath>
</defs>
</svg>
